<svg width="16" height="18" viewBox="0 0 16 18" fill="none" xmlns="http://www.w3.org/2000/svg">
<path d="M13 1.125V0H12V1.125H10V0H9V1.125H7.05V0H6.05V1.125H4V0H3V1.125H0V18H16V1.125H13ZM3 2.25V3.375H4V2.25H6.05V3.375H7.05V2.25H9V3.375H10V2.25H12V3.375H13V2.25H15V4.5H1V2.25H3ZM1 16.875V5.625H15V16.875H1Z" fill="#95A3BA"/>
<path d="M4.5 7.3125H3.5V8.4375H4.5V7.3125Z" fill="#95A3BA"/>
<path d="M6.5 7.3125H5.5V8.4375H6.5V7.3125Z" fill="#95A3BA"/>
<path d="M8.5 7.3125H7.5V8.4375H8.5V7.3125Z" fill="#95A3BA"/>
<path d="M10.5 7.3125H9.5V8.4375H10.5V7.3125Z" fill="#95A3BA"/>
<path d="M12.5 7.3125H11.5V8.4375H12.5V7.3125Z" fill="#95A3BA"/>
<path d="M4.5 9.5625H3.5V10.6875H4.5V9.5625Z" fill="#95A3BA"/>
<path d="M6.5 9.5625H5.5V10.6875H6.5V9.5625Z" fill="#95A3BA"/>
<path d="M8.5 9.5625H7.5V10.6875H8.5V9.5625Z" fill="#95A3BA"/>
<path d="M10.5 9.5625H9.5V10.6875H10.5V9.5625Z" fill="#95A3BA"/>
<path d="M12.5 9.5625H11.5V10.6875H12.5V9.5625Z" fill="#95A3BA"/>
<path d="M4.5 11.8125H3.5V12.9375H4.5V11.8125Z" fill="#95A3BA"/>
<path d="M6.5 11.8125H5.5V12.9375H6.5V11.8125Z" fill="#95A3BA"/>
<path d="M8.5 11.8125H7.5V12.9375H8.5V11.8125Z" fill="#95A3BA"/>
<path d="M10.5 11.8125H9.5V12.9375H10.5V11.8125Z" fill="#95A3BA"/>
<path d="M12.5 11.8125H11.5V12.9375H12.5V11.8125Z" fill="#95A3BA"/>
<path d="M4.5 14.0625H3.5V15.1875H4.5V14.0625Z" fill="#95A3BA"/>
<path d="M6.5 14.0625H5.5V15.1875H6.5V14.0625Z" fill="#95A3BA"/>
<path d="M8.5 14.0625H7.5V15.1875H8.5V14.0625Z" fill="#95A3BA"/>
<path d="M10.5 14.0625H9.5V15.1875H10.5V14.0625Z" fill="#95A3BA"/>
<path d="M12.5 14.0625H11.5V15.1875H12.5V14.0625Z" fill="#95A3BA"/>
</svg>
