<svg width="17" height="16" viewBox="0 0 17 16" fill="none" xmlns="http://www.w3.org/2000/svg">
<path d="M15.5727 1.91648C14.6888 0.990322 13.5449 0.5 12.349 0.5C11.1531 0.5 10.0092 0.990322 9.12525 1.91648L8.44931 2.62472L7.77337 1.91648C6.88944 0.990322 5.74553 0.5 4.54963 0.5C3.35373 0.5 2.20982 0.990322 1.32589 1.91648C-0.441963 3.7688 -0.441963 6.81967 1.32589 8.67198L8.08533 15.7544C8.18932 15.8633 8.34532 15.9178 8.44931 15.9178C8.5533 15.9178 8.70929 15.8633 8.81328 15.7544L15.5727 8.67198C17.3406 6.81967 17.3406 3.7688 15.5727 1.91648ZM14.8448 7.90927L8.44931 14.6103L2.05384 7.90927C0.701955 6.49279 0.701955 4.15015 2.05384 2.6792C2.72979 1.97096 3.61371 1.5896 4.54963 1.5896C5.48555 1.5896 6.36947 1.97096 7.04542 2.6792L8.08533 3.76879C8.29331 3.98671 8.6053 3.98671 8.81328 3.76879L9.8532 2.6792C10.5291 1.97096 11.4131 1.5896 12.349 1.5896C13.2849 1.5896 14.1688 1.97096 14.8448 2.6792C16.1967 4.09567 16.1967 6.43831 14.8448 7.90927Z" fill="#95A3BA"/>
<path d="M12.6088 2.84277C12.2968 2.84277 12.0888 3.06069 12.0888 3.38757C12.0888 3.71445 12.2968 3.93237 12.6088 3.93237C13.1807 3.93237 13.6487 4.42269 13.6487 5.02197C13.6487 5.34885 13.8567 5.56677 14.1687 5.56677C14.4806 5.56677 14.6886 5.34885 14.6886 5.02197C14.6886 3.82341 13.7527 2.84277 12.6088 2.84277Z" fill="#95A3BA"/>
</svg>
