<svg width="16" height="17" viewBox="0 0 16 17" fill="none" xmlns="http://www.w3.org/2000/svg">
<path d="M5.91658 15.5833V16.3333C6.3308 16.3333 6.66658 15.9975 6.66658 15.5833H5.91658ZM10.0833 15.5833H9.33325C9.33325 15.9975 9.66904 16.3333 10.0833 16.3333V15.5833ZM14.6666 15.5833V16.3333C15.0808 16.3333 15.4166 15.9975 15.4166 15.5833H14.6666ZM14.1783 7.25L14.7086 6.71967L14.1783 7.25ZM8.58909 1.66083L8.05875 2.19116V2.19116L8.58909 1.66083ZM7.41075 1.66083L7.94108 2.19116L7.94176 2.19048L7.41075 1.66083ZM1.82159 7.25L1.29126 6.71967H1.29126L1.82159 7.25ZM1.33325 15.5833H0.583252C0.583252 15.9975 0.919038 16.3333 1.33325 16.3333L1.33325 15.5833ZM6.66658 15.5833V11.8333H5.16659V15.5833H6.66658ZM6.66658 11.8333C6.66658 11.0967 7.2633 10.5 7.99992 10.5V9C6.43487 9 5.16659 10.2683 5.16659 11.8333H6.66658ZM7.99992 10.5C8.73654 10.5 9.33325 11.0967 9.33325 11.8333H10.8333C10.8333 10.2683 9.56497 9 7.99992 9V10.5ZM9.33325 11.8333V15.5833H10.8333V11.8333H9.33325ZM10.0833 16.3333H14.6666V14.8333H10.0833V16.3333ZM15.4166 15.5833V8.42833H13.9166V15.5833H15.4166ZM15.4166 8.42833C15.4166 7.78753 15.1616 7.17266 14.7086 6.71967L13.6479 7.78033C13.8199 7.95234 13.9166 8.1858 13.9166 8.42833H15.4166ZM14.7086 6.71967L9.11941 1.1305L8.05875 2.19116L13.6479 7.78033L14.7086 6.71967ZM9.11941 1.1305C8.50106 0.512152 7.49817 0.511174 6.87974 1.13118L7.94176 2.19048C7.97334 2.15883 8.02544 2.15785 8.05875 2.19116L9.11941 1.1305ZM6.88042 1.1305L1.29126 6.71967L2.35192 7.78033L7.94108 2.19116L6.88042 1.1305ZM1.29126 6.71967C0.838262 7.17266 0.583252 7.78753 0.583252 8.42833H2.08325C2.08325 8.1858 2.17991 7.95234 2.35192 7.78033L1.29126 6.71967ZM0.583252 8.42833V15.5833H2.08325V8.42833H0.583252ZM1.33325 16.3333H5.91658V14.8333H1.33325V16.3333Z" fill="#95A3BA"/>
</svg>
