<svg width="29" height="29" viewBox="0 0 29 29" fill="none" xmlns="http://www.w3.org/2000/svg">
<path d="M27.8491 21.5086L23.8286 17.488C22.9148 16.6657 21.7269 16.6657 20.9045 17.3967C20.9045 17.3967 20.8132 17.3967 20.8132 17.488L18.6202 19.6811C17.9805 20.3207 16.884 20.3207 16.3358 19.6811L12.9548 16.3002L9.57397 12.9193C8.93434 12.2796 8.93434 11.1831 9.57397 10.6349L11.767 8.44186C11.767 8.44186 11.767 8.35048 11.8584 8.35048C12.2239 7.98498 12.4066 7.43672 12.4066 6.88846C12.4066 6.34021 12.2239 5.79195 11.8584 5.42645L11.767 5.33509L7.74645 1.31454C6.92407 0.492159 5.55342 0.492159 4.73104 1.31454L2.08115 3.96446C-0.568746 6.61435 -0.203232 14.2899 7.28957 22.0568C12.2239 26.8997 17.2495 28.7272 20.8132 28.7272C22.8234 28.7272 24.3768 28.179 25.3819 27.1739L28.0318 24.524C28.4887 24.0671 28.6715 23.5188 28.6715 22.9706C28.4887 22.5137 28.2146 21.8741 27.8491 21.5086ZM5.82756 2.50244C6.01031 2.41106 6.19307 2.41106 6.37582 2.50244L10.305 6.43158C10.305 6.43158 10.305 6.43159 10.3963 6.52296C10.5791 6.70572 10.5791 6.88847 10.3963 7.07122C10.3963 7.07122 10.3963 7.07123 10.305 7.16261L9.84808 7.61948L5.2793 3.0507L5.82756 2.50244ZM23.9199 25.986C22.0924 27.8135 15.3306 27.7221 8.38607 20.7776C1.62426 13.833 1.44153 7.07122 3.17767 5.24371L4.09142 4.32995L8.66021 8.89874L8.20333 9.35562C6.8327 10.7263 6.8327 12.8279 8.20333 14.1985L11.5842 17.5794L14.9651 20.9603C15.6048 21.5999 16.5185 21.9655 17.3409 21.9655C18.1633 21.9655 19.1684 21.5999 19.7167 20.9603L20.1736 20.5034L24.7423 25.0722L23.9199 25.986ZM26.5698 23.2447L26.0216 23.793L21.4528 19.2242L21.9097 18.7673C21.9097 18.7673 21.9097 18.7673 22.0011 18.6759C22.1838 18.4932 22.3665 18.4932 22.5493 18.6759C22.5493 18.6759 22.5493 18.6759 22.6407 18.7673L26.5698 22.6965C26.7526 22.8792 26.7526 23.062 26.5698 23.2447Z" fill="#FF3800"/>
<path d="M19.5342 14.9296H21.3617C21.3617 11.0004 18.1635 7.80225 14.2344 7.80225V9.62976C17.1584 9.62976 19.5342 12.0055 19.5342 14.9296Z" fill="#FF3800"/>
<path d="M23.0978 14.9292H24.9253C24.9253 8.98983 20.0824 4.23828 14.2344 4.23828V6.06579C19.0773 6.06579 23.0978 10.0863 23.0978 14.9292Z" fill="#FF3800"/>
<path d="M26.661 14.9295H28.4885C28.4885 7.07118 22.0923 0.583496 14.1426 0.583496V2.41101C21.0871 2.41101 26.661 8.07631 26.661 14.9295Z" fill="#FF3800"/>
</svg>
