<svg width="27" height="36" viewBox="0 0 27 36" fill="none" xmlns="http://www.w3.org/2000/svg">
<path d="M19.9206 7.23248V5.03503H17.833C17.833 2.7277 15.8553 0.75 13.3282 0.75C11.0209 0.75 9.04321 2.61783 9.04321 5.03503H6.95561V7.23248H0.583008V35.25H26.4031V7.23248H19.9206ZM13.4381 2.83757C14.6467 2.83757 15.6356 3.82643 15.6356 5.03503H11.2407C11.2407 3.82643 12.2295 2.83757 13.4381 2.83757ZM17.7231 7.1226V9.32005H9.15306V7.1226H17.7231ZM24.3155 33.0525H2.67058V9.32005H6.95561V11.5175H19.9206V9.32005H24.3155V33.0525Z" fill="#FF3800"/>
<path d="M22.0083 16.9019H4.86816V19.0993H22.0083V16.9019Z" fill="#FF3800"/>
<path d="M22.0083 21.187H4.86816V23.3845H22.0083V21.187Z" fill="#FF3800"/>
<path d="M22.1181 25.5811H4.86816V27.7785H22.1181V25.5811Z" fill="#FF3800"/>
</svg>
