<svg width="19" height="13" viewBox="0 0 19 13" fill="none" xmlns="http://www.w3.org/2000/svg">
<path d="M3.93449 5.15625C3.40989 5.15625 2.95085 5.48413 2.68855 5.87758H0.0655441V7.18908H2.68855C2.95085 7.64811 3.40989 7.91041 3.93449 7.91041C4.45909 7.91041 4.91812 7.58253 5.18042 7.18908H18.0987V5.87758H5.11484C4.91811 5.41855 4.45909 5.15625 3.93449 5.15625Z" fill="#95A3BA"/>
<path d="M15.0823 1.22133C14.82 0.762305 14.3609 0.5 13.8363 0.5C13.6396 0.5 13.4429 0.565583 13.2462 0.631158C12.8527 0.696733 12.5248 0.95903 12.3281 1.22133H0V2.53283H12.3281C12.5248 2.86071 12.8527 3.12301 13.2462 3.12301C13.4429 3.18858 13.6396 3.25416 13.8363 3.25416C14.3609 3.25416 14.82 2.92628 15.0823 2.53283H18.0987V1.22133H15.0823Z" fill="#95A3BA"/>
<path d="M13.8363 9.74512C13.3117 9.74512 12.8527 10.073 12.5904 10.4664H0.0655441V11.778H12.5904C12.8527 12.237 13.3117 12.4993 13.8363 12.4993C14.3609 12.4993 14.82 12.1714 15.0823 11.778H18.0987V10.4664H15.0823C14.82 10.073 14.3609 9.74512 13.8363 9.74512Z" fill="#95A3BA"/>
</svg>
