<svg width="22" height="23" viewBox="0 0 22 23" fill="none" xmlns="http://www.w3.org/2000/svg">
<path d="M10.5486 23H11.4646C16.4375 23 18.9244 23 20.4688 21.3854C22.0132 19.7708 22 17.1718 22 11.9858V11.0142C22 5.82914 22 3.2292 20.4688 1.6146C18.9376 4.54358e-06 16.4375 0 11.4646 0H10.5486C5.5748 0 3.0888 4.54358e-06 1.5444 1.6146C-9.25625e-07 3.2292 0 5.82727 0 11.0142V11.9858C0 17.1718 -9.25625e-07 19.7708 1.5444 21.3854C3.0888 23 5.5748 23 10.5486 23Z" fill="white"/>
<path d="M16.8106 6.84691C16.7882 7.31549 16.5192 9.00239 16.2501 10.8064L15.443 16.1717C15.443 16.1717 15.3757 16.9449 14.8153 17.0854C14.2548 17.226 13.3355 16.6169 13.1786 16.4763C13.0441 16.3826 10.7348 14.8362 9.88287 14.0865C9.65867 13.8756 9.38963 13.4774 9.90529 12.9853C11.0711 11.8607 12.4836 10.455 13.3355 9.56469C13.7167 9.16639 14.1202 8.2058 12.4836 9.35383L7.8875 12.587C7.8875 12.587 7.37184 12.9385 6.38536 12.6105C5.39889 12.3059 4.25547 11.8842 4.25547 11.8842C4.25547 11.8842 3.47077 11.3687 4.81597 10.8299L12.4163 7.54978C13.1562 7.19834 15.712 6.1206 15.712 6.1206C15.712 6.1206 16.9003 5.67545 16.8106 6.84691Z" fill="#07433E"/>
</svg>
