<svg width="23" height="23" viewBox="0 0 23 23" fill="none" xmlns="http://www.w3.org/2000/svg">
<g clip-path="url(#clip0_1380_8234)">
<path d="M11.028 23H11.9858C17.1847 23 19.7846 23 21.3992 21.3854C23.0138 19.7708 23 17.1718 23 11.9858V11.0142C23 5.82913 23 3.2292 21.3992 1.6146C19.7984 4.45545e-06 17.1847 0 11.9858 0H11.028C5.8282 0 3.2292 4.45545e-06 1.6146 1.6146C-1.02818e-06 3.2292 0 5.82727 0 11.0142V11.9858C0 17.1718 -1.02818e-06 19.7708 1.6146 21.3854C3.2292 23 5.8282 23 11.028 23Z" fill="white"/>
<path d="M12.3422 16.5828C7.15614 16.5828 4.00881 12.9847 3.88647 7.00562H6.51307C6.59494 11.3977 8.59317 13.2616 10.125 13.6416V7.00562H12.643V10.7951C14.1205 10.6314 15.6661 8.90728 16.1869 7.00562H18.6626C18.2661 9.34518 16.5834 11.0693 15.3929 11.7804C16.5834 12.3554 18.4988 13.8606 19.2376 16.5828H16.5153C15.9403 14.7631 14.5309 13.3536 12.643 13.1623V16.5828H12.3422Z" fill="#07433E"/>
</g>
<defs>
<clipPath id="clip0_1380_8234">
<rect width="23" height="23" fill="white"/>
</clipPath>
</defs>
</svg>
